<?xml version="1.0" encoding="UTF-8" standalone="no"?>
<!-- Created with Inkscape (http://www.inkscape.org/) -->

<svg
   xmlns:dc="http://purl.org/dc/elements/1.1/"
   xmlns:cc="http://creativecommons.org/ns#"
   xmlns:rdf="http://www.w3.org/1999/02/22-rdf-syntax-ns#"
   xmlns:svg="http://www.w3.org/2000/svg"
   xmlns="http://www.w3.org/2000/svg"
   xmlns:sodipodi="http://sodipodi.sourceforge.net/DTD/sodipodi-0.dtd"
   xmlns:inkscape="http://www.inkscape.org/namespaces/inkscape"
   id="svg2"
   version="1.1"
   inkscape:version="0.91 r13725"
   xml:space="preserve"
   width="141.73293"
   height="35.434124"
   viewBox="0 0 141.73293 35.434124"
   sodipodi:docname="spiffe-logo-white.svg"><metadata
     id="metadata8"><rdf:RDF><cc:Work
         rdf:about=""><dc:format>image/svg+xml</dc:format><dc:type
           rdf:resource="http://purl.org/dc/dcmitype/StillImage" /><dc:title></dc:title></cc:Work></rdf:RDF></metadata><defs
     id="defs6"><clipPath
       clipPathUnits="userSpaceOnUse"
       id="clipPath18"><path
         d="m 0,283.465 283.464,0 L 283.464,0 0,0 0,283.465 Z"
         id="path20"
         inkscape:connector-curvature="0" /></clipPath></defs><sodipodi:namedview
     pagecolor="#ffff57"
     bordercolor="#666666"
     borderopacity="1"
     objecttolerance="10"
     gridtolerance="10"
     guidetolerance="10"
     inkscape:pageopacity="0"
     inkscape:pageshadow="2"
     inkscape:window-width="1213"
     inkscape:window-height="627"
     id="namedview4"
     showgrid="false"
     fit-margin-top="0"
     fit-margin-left="0"
     fit-margin-right="0"
     fit-margin-bottom="0"
     inkscape:zoom="0.66604345"
     inkscape:cx="-173.11471"
     inkscape:cy="17.716881"
     inkscape:window-x="0"
     inkscape:window-y="0"
     inkscape:window-maximized="0"
     inkscape:current-layer="g10" /><g
     id="g10"
     inkscape:groupmode="layer"
     inkscape:label="4. WHITE LOGO"
     transform="matrix(1.25,0,0,-1.25,-106.30163,194.88287)"><g
       id="g14"><g
         id="g16"
         clip-path="url(#clipPath18)"><g
           id="g22"
           transform="translate(85.4512,155.9063)"><path
             d="m 0,0 2.33,0 c 0.225,0 0.408,-0.184 0.408,-0.41 l 0,-2.33 c 0,-0.225 -0.183,-0.408 -0.408,-0.408 l -2.33,0 c -0.226,0 -0.409,0.183 -0.409,0.408 l 0,2.33 C -0.409,-0.184 -0.226,0 0,0"
             style="fill:#ffffff;fill-opacity:1;fill-rule:evenodd;stroke:none"
             id="path24"
             inkscape:connector-curvature="0" /></g><g
           id="g26"
           transform="translate(91.748,155.9063)"><path
             d="m 0,0 21.23,0 c 0.226,0 0.41,-0.184 0.41,-0.41 l 0,-2.33 c 0,-0.225 -0.184,-0.408 -0.41,-0.408 l -21.23,0 c -0.226,0 -0.41,0.183 -0.41,0.408 l 0,2.33 C -0.41,-0.184 -0.226,0 0,0"
             style="fill:#ffffff;fill-opacity:1;fill-rule:evenodd;stroke:none"
             id="path28"
             inkscape:connector-curvature="0" /></g><g
           id="g30"
           transform="translate(112.9785,149.6094)"><path
             d="m 0,0 -2.33,0 c -0.225,0 -0.408,-0.184 -0.408,-0.41 l 0,-2.328 c 0,-0.227 0.183,-0.41 0.408,-0.41 l 2.33,0 c 0.226,0 0.409,0.183 0.409,0.41 l 0,2.328 C 0.409,-0.184 0.226,0 0,0"
             style="fill:#ffffff;fill-opacity:1;fill-rule:evenodd;stroke:none"
             id="path32"
             inkscape:connector-curvature="0" /></g><g
           id="g34"
           transform="translate(100.3857,149.6094)"><path
             d="m 0,0 -14.935,0 c -0.225,0 -0.409,-0.186 -0.409,-0.41 l 0,-2.328 c 0,-0.225 0.185,-0.41 0.409,-0.41 l 14.935,0 c 0.225,0 0.409,0.183 0.409,0.41 l 0,2.328 C 0.409,-0.184 0.226,0 0,0"
             style="fill:#ffffff;fill-opacity:1;fill-rule:evenodd;stroke:none"
             id="path36"
             inkscape:connector-curvature="0" /></g><g
           id="g38"
           transform="translate(106.6826,149.6094)"><path
             d="m 0,0 -2.33,0 c -0.226,0 -0.409,-0.184 -0.409,-0.41 l 0,-2.328 c 0,-0.227 0.183,-0.41 0.409,-0.41 l 2.33,0 c 0.226,0 0.409,0.183 0.409,0.41 l 0,2.328 C 0.409,-0.184 0.226,0 0,0"
             style="fill:#ffffff;fill-opacity:1;fill-rule:evenodd;stroke:none"
             id="path40"
             inkscape:connector-curvature="0" /></g><g
           id="g42"
           transform="translate(106.6826,143.3125)"><path
             d="m 0,0 -14.936,0 c -0.225,0 -0.409,-0.184 -0.409,-0.408 l 0,-2.33 c 0,-0.225 0.185,-0.41 0.409,-0.41 l 14.936,0 c 0.224,0 0.408,0.183 0.408,0.41 l 0,2.33 C 0.408,-0.184 0.225,0 0,0"
             style="fill:#ffffff;fill-opacity:1;fill-rule:evenodd;stroke:none"
             id="path44"
             inkscape:connector-curvature="0" /></g><g
           id="g46"
           transform="translate(112.9785,143.3125)"><path
             d="m 0,0 -2.33,0 c -0.225,0 -0.408,-0.184 -0.408,-0.408 l 0,-2.33 c 0,-0.227 0.183,-0.41 0.408,-0.41 l 2.33,0 c 0.226,0 0.409,0.183 0.409,0.41 l 0,2.33 C 0.409,-0.184 0.226,0 0,0"
             style="fill:#ffffff;fill-opacity:1;fill-rule:evenodd;stroke:none"
             id="path48"
             inkscape:connector-curvature="0" /></g><g
           id="g50"
           transform="translate(87.7803,143.3125)"><path
             d="m 0,0 -2.33,0 c -0.225,0 -0.409,-0.184 -0.409,-0.408 l 0,-2.33 c 0,-0.227 0.184,-0.41 0.409,-0.41 l 2.33,0 c 0.226,0 0.409,0.183 0.409,0.41 l 0,2.33 C 0.409,-0.184 0.226,0 0,0"
             style="fill:#ffffff;fill-opacity:1;fill-rule:evenodd;stroke:none"
             id="path52"
             inkscape:connector-curvature="0" /></g><g
           id="g54"
           transform="translate(85.4512,137.0156)"><path
             d="m 0,0 2.33,0 c 0.226,0 0.409,-0.184 0.409,-0.408 l 0,-2.33 c 0,-0.225 -0.183,-0.408 -0.409,-0.408 l -2.33,0 c -0.226,0 -0.409,0.183 -0.409,0.408 l 0,2.33 C -0.409,-0.184 -0.226,0 0,0"
             style="fill:#ffffff;fill-opacity:1;fill-rule:evenodd;stroke:none"
             id="path56"
             inkscape:connector-curvature="0" /></g><g
           id="g58"
           transform="translate(98.0439,137.0156)"><path
             d="m 0,0 14.935,0 c 0.225,0 0.409,-0.184 0.409,-0.408 l 0,-2.33 c 0,-0.225 -0.185,-0.408 -0.409,-0.408 L 0,-3.146 c -0.225,0 -0.409,0.183 -0.409,0.408 l 0,2.33 C -0.409,-0.184 -0.226,0 0,0"
             style="fill:#ffffff;fill-opacity:1;fill-rule:evenodd;stroke:none"
             id="path60"
             inkscape:connector-curvature="0" /></g><g
           id="g62"
           transform="translate(91.7471,137.0156)"><path
             d="m 0,0 2.33,0 c 0.226,0 0.409,-0.184 0.409,-0.408 l 0,-2.33 c 0,-0.225 -0.183,-0.408 -0.409,-0.408 l -2.33,0 c -0.225,0 -0.409,0.183 -0.409,0.408 l 0,2.33 C -0.409,-0.184 -0.225,0 0,0"
             style="fill:#ffffff;fill-opacity:1;fill-rule:evenodd;stroke:none"
             id="path64"
             inkscape:connector-curvature="0" /></g><g
           id="g66"
           transform="translate(112.9785,130.707)"><path
             d="m 0,0 -2.33,0 c -0.225,0 -0.408,-0.184 -0.408,-0.408 l 0,-2.33 c 0,-0.227 0.183,-0.41 0.408,-0.41 l 2.33,0 c 0.226,0 0.409,0.183 0.409,0.41 l 0,2.33 C 0.409,-0.184 0.226,0 0,0"
             style="fill:#ffffff;fill-opacity:1;fill-rule:evenodd;stroke:none"
             id="path68"
             inkscape:connector-curvature="0" /></g><g
           id="g70"
           transform="translate(106.6816,130.707)"><path
             d="m 0,0 -21.23,0 c -0.226,0 -0.41,-0.184 -0.41,-0.408 l 0,-2.33 c 0,-0.225 0.184,-0.41 0.41,-0.41 l 21.23,0 c 0.226,0 0.409,0.183 0.409,0.41 l 0,2.33 C 0.409,-0.184 0.226,0 0,0"
             style="fill:#ffffff;fill-opacity:1;fill-rule:evenodd;stroke:none"
             id="path72"
             inkscape:connector-curvature="0" /></g><g
           id="g74"
           transform="translate(135.9453,139.9717)"><path
             d="M 0,0 C -0.211,0.334 -0.51,0.643 -0.897,0.916 -1.285,1.197 -1.78,1.451 -2.389,1.688 l -3.916,1.558 c -0.603,0.221 -1.059,0.506 -1.363,0.856 -0.31,0.347 -0.461,0.751 -0.461,1.206 l 0,0.382 c 0,0.516 0.176,0.899 0.534,1.153 0.354,0.256 0.893,0.379 1.615,0.379 l 5.474,0 c 0.295,0 0.442,0.146 0.442,0.441 l 0,1.266 c 0,0.133 -0.035,0.24 -0.108,0.324 C -0.24,9.335 -0.344,9.384 -0.476,9.399 -1.947,9.575 -3.449,9.665 -4.98,9.665 -5.573,9.665 -6.108,9.646 -6.584,9.61 -7.06,9.571 -7.506,9.507 -7.918,9.413 -8.326,9.325 -8.733,9.204 -9.13,9.046 -9.719,8.812 -10.17,8.438 -10.485,7.923 -10.793,7.413 -10.951,6.765 -10.956,5.985 l 0,-0.617 c 0,-1.048 0.236,-1.915 0.707,-2.612 0.471,-0.701 1.177,-1.231 2.12,-1.6 l 4.179,-1.588 c 0.432,-0.181 0.771,-0.369 1.021,-0.56 0.25,-0.186 0.427,-0.394 0.535,-0.618 0.103,-0.231 0.157,-0.496 0.152,-0.795 l 0,-0.354 c 0.005,-0.416 -0.083,-0.734 -0.27,-0.961 -0.187,-0.22 -0.505,-0.373 -0.961,-0.451 -0.451,-0.084 -1.07,-0.123 -1.86,-0.117 l -5.446,0 c -0.294,0 -0.441,-0.149 -0.441,-0.441 l 0,-1.295 c 0,-0.266 0.147,-0.413 0.441,-0.444 1.501,-0.176 3.298,-0.263 5.387,-0.263 1.075,0 1.987,0.068 2.747,0.201 0.756,0.133 1.36,0.328 1.816,0.593 0.456,0.264 0.8,0.663 1.035,1.188 0.231,0.529 0.348,1.182 0.348,1.961 l 0,0.324 C 0.559,-1.974 0.52,-1.522 0.437,-1.113 0.358,-0.707 0.211,-0.338 0,0"
             style="fill:#ffffff;fill-opacity:1;fill-rule:nonzero;stroke:none"
             id="path76"
             inkscape:connector-curvature="0" /></g><g
           id="g78"
           transform="translate(150.335,138.4785)"><path
             d="m 0,0 c -0.118,-0.77 -0.304,-1.338 -0.555,-1.707 -0.47,-0.705 -1.589,-1.059 -3.356,-1.059 -0.603,0 -1.211,0.02 -1.829,0.063 -0.623,0.041 -1.246,0.099 -1.879,0.172 l 0,11.217 3.768,0 c 0.868,0 1.579,-0.088 2.139,-0.27 0.554,-0.178 0.951,-0.451 1.188,-0.82 C -0.289,7.229 -0.112,6.66 0.005,5.888 0.123,5.118 0.182,4.138 0.182,2.944 0.182,1.753 0.123,0.772 0,0 m 1.683,9.539 c -0.441,0.545 -1.123,0.951 -2.051,1.217 -0.927,0.269 -2.1,0.402 -3.512,0.402 -0.987,0 -1.988,-0.045 -3.004,-0.129 -1.014,-0.088 -2.045,-0.211 -3.09,-0.373 -0.162,-0.029 -0.279,-0.088 -0.359,-0.17 -0.073,-0.09 -0.112,-0.197 -0.112,-0.33 l 0,-20.634 c 0,-0.294 0.147,-0.441 0.442,-0.441 l 1.942,0 c 0.294,0 0.442,0.147 0.442,0.441 l 0,5.415 c 1.03,-0.117 2.325,-0.175 3.885,-0.175 1.384,0 2.532,0.133 3.439,0.402 0.913,0.266 1.581,0.672 2.007,1.217 0.427,0.543 0.751,1.363 0.966,2.457 C 2.9,-0.068 3.007,1.312 3.007,2.974 3.007,4.622 2.9,5.991 2.678,7.086 2.458,8.18 2.125,8.994 1.683,9.539"
             style="fill:#ffffff;fill-opacity:1;fill-rule:nonzero;stroke:none"
             id="path80"
             inkscape:connector-curvature="0" /></g><g
           id="g82"
           transform="translate(158.5132,155.9053)"><path
             d="m 0,0 c -0.574,0 -1.006,-0.141 -1.301,-0.422 -0.289,-0.283 -0.437,-0.711 -0.437,-1.285 0,-0.572 0.148,-1.006 0.437,-1.299 0.295,-0.289 0.727,-0.437 1.301,-0.437 0.573,0 1.005,0.148 1.3,0.437 0.289,0.293 0.437,0.727 0.437,1.299 0,0.574 -0.148,1.002 -0.437,1.285 C 1.005,-0.141 0.573,0 0,0"
             style="fill:#ffffff;fill-opacity:1;fill-rule:nonzero;stroke:none"
             id="path84"
             inkscape:connector-curvature="0" /></g><g
           id="g86"
           transform="translate(159.4839,149.4883)"><path
             d="m 0,0 -1.942,0 c -0.295,0 -0.442,-0.146 -0.442,-0.441 l 0,-15.219 c 0,-0.293 0.147,-0.442 0.442,-0.442 l 1.942,0 c 0.295,0 0.441,0.149 0.441,0.442 l 0,15.219 C 0.441,-0.146 0.295,0 0,0"
             style="fill:#ffffff;fill-opacity:1;fill-rule:nonzero;stroke:none"
             id="path88"
             inkscape:connector-curvature="0" /></g><g
           id="g90"
           transform="translate(172.2783,155.5537)"><path
             d="M 0,0 C -0.441,0.088 -0.878,0.156 -1.305,0.201 -1.737,0.244 -2.164,0.264 -2.59,0.264 -2.87,0.264 -3.125,0.26 -3.355,0.25 -3.586,0.234 -3.816,0.205 -4.053,0.166 -4.288,0.121 -4.558,0.059 -4.856,-0.031 -5.077,-0.09 -5.279,-0.162 -5.455,-0.252 c -0.182,-0.088 -0.344,-0.191 -0.49,-0.309 -0.29,-0.22 -0.531,-0.554 -0.727,-1 -0.197,-0.441 -0.294,-0.98 -0.304,-1.609 l 0,-2.895 -2.09,0 c -0.295,0 -0.442,-0.147 -0.442,-0.442 l 0,-1.383 c 0,-0.295 0.147,-0.441 0.442,-0.441 l 2.09,0 0,-13.395 c 0,-0.293 0.146,-0.441 0.441,-0.441 l 1.943,0 c 0.294,0 0.442,0.148 0.442,0.441 l 0,13.395 3.443,0 c 0.133,0 0.236,0.029 0.315,0.094 0.074,0.062 0.127,0.156 0.158,0.289 L 0,-6.536 c 0.029,0.162 0.016,0.279 -0.049,0.359 -0.058,0.073 -0.172,0.112 -0.333,0.112 l -3.768,0 0,2.282 c -0.005,0.451 0.068,0.791 0.22,1.015 0.153,0.231 0.412,0.383 0.776,0.457 0.358,0.073 0.854,0.108 1.477,0.102 l 1.618,0 c 0.294,0 0.442,0.148 0.442,0.441 l 0,1.297 c 0,0.131 -0.029,0.235 -0.093,0.313 C 0.231,-0.084 0.133,-0.031 0,0"
             style="fill:#ffffff;fill-opacity:1;fill-rule:nonzero;stroke:none"
             id="path92"
             inkscape:connector-curvature="0" /></g><g
           id="g94"
           transform="translate(183.0122,155.5537)"><path
             d="M 0,0 C -0.441,0.088 -0.878,0.156 -1.305,0.201 -1.736,0.244 -2.164,0.264 -2.59,0.264 -2.871,0.264 -3.125,0.26 -3.356,0.25 -3.586,0.234 -3.817,0.205 -4.052,0.166 -4.288,0.121 -4.558,0.059 -4.857,-0.031 -5.078,-0.09 -5.279,-0.162 -5.456,-0.252 c -0.182,-0.088 -0.343,-0.191 -0.49,-0.309 -0.289,-0.22 -0.531,-0.554 -0.726,-1 -0.196,-0.441 -0.295,-0.98 -0.305,-1.609 l 0,-2.895 -2.09,0 c -0.294,0 -0.441,-0.147 -0.441,-0.442 l 0,-1.383 c 0,-0.295 0.147,-0.441 0.441,-0.441 l 2.09,0 0,-13.395 c 0,-0.293 0.148,-0.441 0.442,-0.441 l 1.943,0 c 0.295,0 0.442,0.148 0.442,0.441 l 0,13.395 3.444,0 c 0.133,0 0.235,0.029 0.313,0.094 0.074,0.062 0.128,0.156 0.158,0.289 L 0,-6.536 c 0.029,0.162 0.015,0.279 -0.049,0.359 -0.059,0.073 -0.172,0.112 -0.334,0.112 l -3.767,0 0,2.282 c -0.005,0.451 0.068,0.791 0.221,1.015 0.151,0.231 0.412,0.383 0.774,0.457 0.359,0.073 0.854,0.108 1.477,0.102 l 1.619,0 c 0.294,0 0.442,0.148 0.442,0.441 l 0,1.297 c 0,0.131 -0.029,0.235 -0.094,0.313 C 0.23,-0.084 0.133,-0.031 0,0"
             style="fill:#ffffff;fill-opacity:1;fill-rule:nonzero;stroke:none"
             id="path96"
             inkscape:connector-curvature="0" /></g><g
           id="g98"
           transform="translate(187.9761,142.4834)"><path
             d="M 0,0 C 0.015,0.941 0.089,1.721 0.221,2.345 0.354,2.964 0.545,3.429 0.795,3.739 1.045,4.048 1.428,4.282 1.944,4.44 2.458,4.603 3.106,4.681 3.886,4.681 4.636,4.681 5.26,4.606 5.76,4.454 6.256,4.308 6.624,4.077 6.859,3.769 7.095,3.458 7.276,2.993 7.408,2.37 7.536,1.746 7.609,0.955 7.625,0 L 0,0 Z M 10.083,3.272 C 9.852,4.302 9.523,5.077 9.096,5.593 8.669,6.108 8.022,6.495 7.153,6.761 6.285,7.021 5.196,7.153 3.886,7.153 2.517,7.153 1.379,7.021 0.471,6.751 -0.437,6.485 -1.104,6.079 -1.531,5.534 -1.958,4.989 -2.281,4.171 -2.498,3.077 -2.717,1.98 -2.826,0.604 -2.826,-1.061 c 0,-1.662 0.109,-3.042 0.328,-4.135 0.217,-1.094 0.54,-1.914 0.967,-2.457 0.427,-0.532 1.094,-0.928 2.002,-1.194 0.908,-0.263 2.046,-0.396 3.415,-0.396 0.986,0 1.889,0.023 2.714,0.068 0.818,0.045 1.555,0.108 2.202,0.196 0.133,0.015 0.236,0.064 0.304,0.148 0.074,0.084 0.108,0.191 0.108,0.324 l 0,1.295 c 0,0.293 -0.147,0.441 -0.441,0.441 l -4.828,0 c -0.78,0 -1.433,0.073 -1.957,0.221 -0.526,0.147 -0.914,0.367 -1.164,0.662 -0.25,0.295 -0.441,0.741 -0.574,1.344 -0.132,0.598 -0.206,1.351 -0.221,2.247 l 9.362,0 c 0.284,0 0.5,0.026 0.652,0.08 0.158,0.049 0.265,0.137 0.324,0.26 0.059,0.117 0.089,0.279 0.084,0.484 l 0,0.854 c -0.015,1.56 -0.138,2.855 -0.368,3.891"
             style="fill:#ffffff;fill-opacity:1;fill-rule:nonzero;stroke:none"
             id="path100"
             inkscape:connector-curvature="0" /></g></g></g></g></svg>