<?xml version="1.0" encoding="UTF-8" standalone="no"?>
<svg
   xmlns:dc="http://purl.org/dc/elements/1.1/"
   xmlns:cc="http://creativecommons.org/ns#"
   xmlns:rdf="http://www.w3.org/1999/02/22-rdf-syntax-ns#"
   xmlns:svg="http://www.w3.org/2000/svg"
   xmlns="http://www.w3.org/2000/svg"
   xmlns:sodipodi="http://sodipodi.sourceforge.net/DTD/sodipodi-0.dtd"
   xmlns:inkscape="http://www.inkscape.org/namespaces/inkscape"
   viewBox="0 0 35.433377 35.434124"
   xml:space="preserve"
   version="1.1"
   id="svg3355"
   inkscape:version="0.91 r13725"
   sodipodi:docname="spiffe-logo-white.svg"><sodipodi:namedview
     pagecolor="#666b4c"
     bordercolor="#666666"
     borderopacity="1"
     objecttolerance="10"
     gridtolerance="10"
     guidetolerance="10"
     inkscape:pageopacity="0"
     inkscape:pageshadow="2"
     inkscape:window-width="1204"
     inkscape:window-height="741"
     id="namedview3440"
     showgrid="false"
     inkscape:zoom="1.18"
     inkscape:cx="20.12308"
     inkscape:cy="17.717062"
     inkscape:window-x="86"
     inkscape:window-y="25"
     inkscape:window-maximized="0"
     inkscape:current-layer="svg3355" /><metadata
     id="metadata3361"><rdf:RDF><cc:Work
         rdf:about=""><dc:format>image/svg+xml</dc:format><dc:type
           rdf:resource="http://purl.org/dc/dcmitype/StillImage" /><dc:title></dc:title></cc:Work></rdf:RDF></metadata><defs
     id="defs3359"><clipPath
       id="clipPath3371"
       clipPathUnits="userSpaceOnUse"><path
         id="path3373"
         d="m 0,283.465 283.464,0 L 283.464,0 0,0 0,283.465 Z" /></clipPath></defs><g
     transform="matrix(1.25,0,0,-1.25,-106.30163,194.88287)"
     id="g3363"><g
       transform="translate(85.4512,155.9063)"
       id="g3375"><path
         id="path3377"
         style="fill:#ffffff;fill-opacity:1;fill-rule:evenodd;stroke:none"
         d="m 0,0 2.33,0 c 0.225,0 0.408,-0.184 0.408,-0.41 l 0,-2.33 c 0,-0.225 -0.183,-0.408 -0.408,-0.408 l -2.33,0 c -0.226,0 -0.409,0.183 -0.409,0.408 l 0,2.33 C -0.409,-0.184 -0.226,0 0,0" /></g><g
       transform="translate(91.748,155.9063)"
       id="g3379"><path
         id="path3381"
         style="fill:#ffffff;fill-opacity:1;fill-rule:evenodd;stroke:none"
         d="m 0,0 21.23,0 c 0.226,0 0.41,-0.184 0.41,-0.41 l 0,-2.33 c 0,-0.225 -0.184,-0.408 -0.41,-0.408 l -21.23,0 c -0.226,0 -0.41,0.183 -0.41,0.408 l 0,2.33 C -0.41,-0.184 -0.226,0 0,0" /></g><g
       transform="translate(112.9785,149.6094)"
       id="g3383"><path
         id="path3385"
         style="fill:#ffffff;fill-opacity:1;fill-rule:evenodd;stroke:none"
         d="m 0,0 -2.33,0 c -0.225,0 -0.408,-0.184 -0.408,-0.41 l 0,-2.328 c 0,-0.227 0.183,-0.41 0.408,-0.41 l 2.33,0 c 0.226,0 0.409,0.183 0.409,0.41 l 0,2.328 C 0.409,-0.184 0.226,0 0,0" /></g><g
       transform="translate(100.3857,149.6094)"
       id="g3387"><path
         id="path3389"
         style="fill:#ffffff;fill-opacity:1;fill-rule:evenodd;stroke:none"
         d="m 0,0 -14.935,0 c -0.225,0 -0.409,-0.186 -0.409,-0.41 l 0,-2.328 c 0,-0.225 0.185,-0.41 0.409,-0.41 l 14.935,0 c 0.225,0 0.409,0.183 0.409,0.41 l 0,2.328 C 0.409,-0.184 0.226,0 0,0" /></g><g
       transform="translate(106.6826,149.6094)"
       id="g3391"><path
         id="path3393"
         style="fill:#ffffff;fill-opacity:1;fill-rule:evenodd;stroke:none"
         d="m 0,0 -2.33,0 c -0.226,0 -0.409,-0.184 -0.409,-0.41 l 0,-2.328 c 0,-0.227 0.183,-0.41 0.409,-0.41 l 2.33,0 c 0.226,0 0.409,0.183 0.409,0.41 l 0,2.328 C 0.409,-0.184 0.226,0 0,0" /></g><g
       transform="translate(106.6826,143.3125)"
       id="g3395"><path
         id="path3397"
         style="fill:#ffffff;fill-opacity:1;fill-rule:evenodd;stroke:none"
         d="m 0,0 -14.936,0 c -0.225,0 -0.409,-0.184 -0.409,-0.408 l 0,-2.33 c 0,-0.225 0.185,-0.41 0.409,-0.41 l 14.936,0 c 0.224,0 0.408,0.183 0.408,0.41 l 0,2.33 C 0.408,-0.184 0.225,0 0,0" /></g><g
       transform="translate(112.9785,143.3125)"
       id="g3399"><path
         id="path3401"
         style="fill:#ffffff;fill-opacity:1;fill-rule:evenodd;stroke:none"
         d="m 0,0 -2.33,0 c -0.225,0 -0.408,-0.184 -0.408,-0.408 l 0,-2.33 c 0,-0.227 0.183,-0.41 0.408,-0.41 l 2.33,0 c 0.226,0 0.409,0.183 0.409,0.41 l 0,2.33 C 0.409,-0.184 0.226,0 0,0" /></g><g
       transform="translate(87.7803,143.3125)"
       id="g3403"><path
         id="path3405"
         style="fill:#ffffff;fill-opacity:1;fill-rule:evenodd;stroke:none"
         d="m 0,0 -2.33,0 c -0.225,0 -0.409,-0.184 -0.409,-0.408 l 0,-2.33 c 0,-0.227 0.184,-0.41 0.409,-0.41 l 2.33,0 c 0.226,0 0.409,0.183 0.409,0.41 l 0,2.33 C 0.409,-0.184 0.226,0 0,0" /></g><g
       transform="translate(85.4512,137.0156)"
       id="g3407"><path
         id="path3409"
         style="fill:#ffffff;fill-opacity:1;fill-rule:evenodd;stroke:none"
         d="m 0,0 2.33,0 c 0.226,0 0.409,-0.184 0.409,-0.408 l 0,-2.33 c 0,-0.225 -0.183,-0.408 -0.409,-0.408 l -2.33,0 c -0.226,0 -0.409,0.183 -0.409,0.408 l 0,2.33 C -0.409,-0.184 -0.226,0 0,0" /></g><g
       transform="translate(98.0439,137.0156)"
       id="g3411"><path
         id="path3413"
         style="fill:#ffffff;fill-opacity:1;fill-rule:evenodd;stroke:none"
         d="m 0,0 14.935,0 c 0.225,0 0.409,-0.184 0.409,-0.408 l 0,-2.33 c 0,-0.225 -0.185,-0.408 -0.409,-0.408 L 0,-3.146 c -0.225,0 -0.409,0.183 -0.409,0.408 l 0,2.33 C -0.409,-0.184 -0.226,0 0,0" /></g><g
       transform="translate(91.7471,137.0156)"
       id="g3415"><path
         id="path3417"
         style="fill:#ffffff;fill-opacity:1;fill-rule:evenodd;stroke:none"
         d="m 0,0 2.33,0 c 0.226,0 0.409,-0.184 0.409,-0.408 l 0,-2.33 c 0,-0.225 -0.183,-0.408 -0.409,-0.408 l -2.33,0 c -0.225,0 -0.409,0.183 -0.409,0.408 l 0,2.33 C -0.409,-0.184 -0.225,0 0,0" /></g><g
       transform="translate(112.9785,130.707)"
       id="g3419"><path
         id="path3421"
         style="fill:#ffffff;fill-opacity:1;fill-rule:evenodd;stroke:none"
         d="m 0,0 -2.33,0 c -0.225,0 -0.408,-0.184 -0.408,-0.408 l 0,-2.33 c 0,-0.227 0.183,-0.41 0.408,-0.41 l 2.33,0 c 0.226,0 0.409,0.183 0.409,0.41 l 0,2.33 C 0.409,-0.184 0.226,0 0,0" /></g><g
       transform="translate(106.6816,130.707)"
       id="g3423"><path
         id="path3425"
         style="fill:#ffffff;fill-opacity:1;fill-rule:evenodd;stroke:none"
         d="m 0,0 -21.23,0 c -0.226,0 -0.41,-0.184 -0.41,-0.408 l 0,-2.33 c 0,-0.225 0.184,-0.41 0.41,-0.41 l 21.23,0 c 0.226,0 0.409,0.183 0.409,0.41 l 0,2.33 C 0.409,-0.184 0.226,0 0,0" /></g></g></svg>
