<?xml version="1.0" encoding="utf-8"?>
<!-- Generator: Adobe Illustrator 21.1.0, SVG Export Plug-In . SVG Version: 6.00 Build 0)  -->
<svg version="1.1"
	 id="svg3355" inkscape:version="0.91 r13725" sodipodi:docname="spiffe-logo-white.svg" xmlns:cc="http://creativecommons.org/ns#" xmlns:dc="http://purl.org/dc/elements/1.1/" xmlns:inkscape="http://www.inkscape.org/namespaces/inkscape" xmlns:rdf="http://www.w3.org/1999/02/22-rdf-syntax-ns#" xmlns:sodipodi="http://sodipodi.sourceforge.net/DTD/sodipodi-0.dtd" xmlns:svg="http://www.w3.org/2000/svg"
	 xmlns="http://www.w3.org/2000/svg" xmlns:xlink="http://www.w3.org/1999/xlink" x="0px" y="0px" viewBox="0 0 35.4 35.4"
	 style="enable-background:new 0 0 35.4 35.4;" xml:space="preserve">
<style type="text/css">
	.st0{fill:#231F20;}
</style>
<sodipodi:namedview  bordercolor="#666666" borderopacity="1" gridtolerance="10" guidetolerance="10" id="namedview3440" inkscape:current-layer="svg3355" inkscape:cx="20.12308" inkscape:cy="17.717062" inkscape:pageopacity="0" inkscape:pageshadow="2" inkscape:window-height="741" inkscape:window-maximized="0" inkscape:window-width="1204" inkscape:window-x="86" inkscape:window-y="25" inkscape:zoom="1.18" objecttolerance="10" pagecolor="#666b4c" showgrid="false">
	</sodipodi:namedview>
<g id="g3363" transform="matrix(1.25,0,0,-1.25,-106.30163,194.88287)">
	<g id="g3375" transform="translate(85.4512,155.9063)">
		<path id="path3377" class="st0" d="M0,0h2.3c0.2,0,0.4-0.2,0.4-0.4v-2.3c0-0.2-0.2-0.4-0.4-0.4H0c-0.2,0-0.4,0.2-0.4,0.4v2.3
			C-0.4-0.2-0.2,0,0,0"/>
	</g>
	<g id="g3379" transform="translate(91.748,155.9063)">
		<path id="path3381" class="st0" d="M0,0h21.2c0.2,0,0.4-0.2,0.4-0.4v-2.3c0-0.2-0.2-0.4-0.4-0.4H0c-0.2,0-0.4,0.2-0.4,0.4v2.3
			C-0.4-0.2-0.2,0,0,0"/>
	</g>
	<g id="g3383" transform="translate(112.9785,149.6094)">
		<path id="path3385" class="st0" d="M0,0h-2.3c-0.2,0-0.4-0.2-0.4-0.4v-2.3c0-0.2,0.2-0.4,0.4-0.4H0c0.2,0,0.4,0.2,0.4,0.4v2.3
			C0.4-0.2,0.2,0,0,0"/>
	</g>
	<g id="g3387" transform="translate(100.3857,149.6094)">
		<path id="path3389" class="st0" d="M0,0h-14.9c-0.2,0-0.4-0.2-0.4-0.4v-2.3c0-0.2,0.2-0.4,0.4-0.4H0c0.2,0,0.4,0.2,0.4,0.4v2.3
			C0.4-0.2,0.2,0,0,0"/>
	</g>
	<g id="g3391" transform="translate(106.6826,149.6094)">
		<path id="path3393" class="st0" d="M0,0h-2.3c-0.2,0-0.4-0.2-0.4-0.4v-2.3c0-0.2,0.2-0.4,0.4-0.4H0c0.2,0,0.4,0.2,0.4,0.4v2.3
			C0.4-0.2,0.2,0,0,0"/>
	</g>
	<g id="g3395" transform="translate(106.6826,143.3125)">
		<path id="path3397" class="st0" d="M0,0h-14.9c-0.2,0-0.4-0.2-0.4-0.4v-2.3c0-0.2,0.2-0.4,0.4-0.4H0c0.2,0,0.4,0.2,0.4,0.4v2.3
			C0.4-0.2,0.2,0,0,0"/>
	</g>
	<g id="g3399" transform="translate(112.9785,143.3125)">
		<path id="path3401" class="st0" d="M0,0h-2.3c-0.2,0-0.4-0.2-0.4-0.4v-2.3c0-0.2,0.2-0.4,0.4-0.4H0c0.2,0,0.4,0.2,0.4,0.4v2.3
			C0.4-0.2,0.2,0,0,0"/>
	</g>
	<g id="g3403" transform="translate(87.7803,143.3125)">
		<path id="path3405" class="st0" d="M0,0h-2.3c-0.2,0-0.4-0.2-0.4-0.4v-2.3c0-0.2,0.2-0.4,0.4-0.4H0c0.2,0,0.4,0.2,0.4,0.4v2.3
			C0.4-0.2,0.2,0,0,0"/>
	</g>
	<g id="g3407" transform="translate(85.4512,137.0156)">
		<path id="path3409" class="st0" d="M0,0h2.3c0.2,0,0.4-0.2,0.4-0.4v-2.3c0-0.2-0.2-0.4-0.4-0.4H0c-0.2,0-0.4,0.2-0.4,0.4v2.3
			C-0.4-0.2-0.2,0,0,0"/>
	</g>
	<g id="g3411" transform="translate(98.0439,137.0156)">
		<path id="path3413" class="st0" d="M0,0h14.9c0.2,0,0.4-0.2,0.4-0.4v-2.3c0-0.2-0.2-0.4-0.4-0.4H0c-0.2,0-0.4,0.2-0.4,0.4v2.3
			C-0.4-0.2-0.2,0,0,0"/>
	</g>
	<g id="g3415" transform="translate(91.7471,137.0156)">
		<path id="path3417" class="st0" d="M0,0h2.3c0.2,0,0.4-0.2,0.4-0.4v-2.3c0-0.2-0.2-0.4-0.4-0.4H0c-0.2,0-0.4,0.2-0.4,0.4v2.3
			C-0.4-0.2-0.2,0,0,0"/>
	</g>
	<g id="g3419" transform="translate(112.9785,130.707)">
		<path id="path3421" class="st0" d="M0,0h-2.3c-0.2,0-0.4-0.2-0.4-0.4v-2.3c0-0.2,0.2-0.4,0.4-0.4H0c0.2,0,0.4,0.2,0.4,0.4v2.3
			C0.4-0.2,0.2,0,0,0"/>
	</g>
	<g id="g3423" transform="translate(106.6816,130.707)">
		<path id="path3425" class="st0" d="M0,0h-21.2c-0.2,0-0.4-0.2-0.4-0.4v-2.3c0-0.2,0.2-0.4,0.4-0.4H0c0.2,0,0.4,0.2,0.4,0.4v2.3
			C0.4-0.2,0.2,0,0,0"/>
	</g>
</g>
</svg>
