<svg id="Layer_1" data-name="Layer 1" xmlns="http://www.w3.org/2000/svg" xmlns:xlink="http://www.w3.org/1999/xlink" viewBox="0 0 520 184.57"><defs><style>.cls-1{fill:#fff;}.cls-2{fill:url(#linear-gradient);}</style><linearGradient id="linear-gradient" x1="18.27" y1="151.71" x2="120.54" y2="23.28" gradientUnits="userSpaceOnUse"><stop offset="0" stop-color="#00b0d2"/><stop offset="1" stop-color="#9aca3c"/></linearGradient></defs><title>FA Logo Spire</title><path class="cls-1" d="M228,49.58c1.1.12,1.71.61,1.71,1.59V56.8c0,1.22-.49,1.84-1.59,1.84H200.56c-10.64,0-16,3.67-16,10.89V71.6c0,6.36,2,9.54,9.18,12.48l26.67,11C231,99.5,234.45,106,234.45,116.38v3.92c0,7.22-2.57,12.48-6.36,15.54a18.53,18.53,0,0,1-7.1,3.67c-5.87,1.59-11.13,2.08-18.84,2.08a262.67,262.67,0,0,1-29.85-1.71,1.78,1.78,0,0,1-1.47-2v-5.51a1.55,1.55,0,0,1,1.71-1.71h33.52c10.89,0,15.9-3.06,15.9-10.77v-2.32c0-6.73-2.08-10.28-9.3-13.21l-29-11.74c-8.81-3.43-11.5-10.4-11.5-20.8V68.91c0-7.22,2.57-12.48,6.12-15.41a19.29,19.29,0,0,1,7.1-3.55c5.87-1.84,11-2.2,18.84-2.2A202.34,202.34,0,0,1,228,49.58Z"/><path class="cls-1" d="M310.06,53.25c6.24,4.4,8.2,11.62,8.2,24.35,0,13.09-2.33,19.82-8,24.1a20.24,20.24,0,0,1-7.1,2.94c-6,1.34-11.74,1.71-21.66,1.71H266v32.79c0,1.47-.37,1.84-1.84,1.84h-8.69c-1.47,0-1.84-.37-1.84-1.84V50.44c0-1.47.37-1.71,1.84-1.84,8.08-.61,16.76-.86,26.06-.86C296.24,47.74,304.07,48.85,310.06,53.25Zm-44,5.38V95.83h14.44c3.3,0,6,0,7.83-.12,3.79-.12,8.56-.49,10.65-1.47,5.14-2.2,7-6.49,6.85-16.39,0-8.2-1.59-13.46-4.89-15.78s-10-3.43-20.43-3.43Z"/><path class="cls-1" d="M347.74,48.35c1.23,0,1.84.61,1.84,2v88.83a1.62,1.62,0,0,1-1.84,1.84h-8.69a1.62,1.62,0,0,1-1.84-1.84V50.31c0-1.34.61-2,1.84-2Z"/><path class="cls-1" d="M430.33,53.25c6.24,4.4,8.19,11.62,8.19,24.35,0,9.67-1.47,16.52-4.53,20.55s-8.07,6.49-15.54,7.47l20.68,32.91c1,1.34.36,2.45-1.47,2.45h-7.83c-2.57,0-3.55-.73-4.89-2.69l-20.19-31.93H386.28v32.79c0,1.47-.36,1.84-1.84,1.84h-8.69c-1.47,0-1.84-.37-1.84-1.84V50.44c0-1.47.37-1.71,1.84-1.84,8.08-.61,16.76-.86,26.06-.86C416.5,47.74,424.33,48.85,430.33,53.25Zm-44,5.38V95.83h14.44c3.3,0,6,0,7.83-.12,3.79-.12,8.56-.49,10.64-1.47,5.14-2.2,7-6.49,6.86-16.39,0-8.2-1.59-13.46-4.9-15.78s-10-3.43-20.43-3.43Z"/><path class="cls-1" d="M518.17,48.35A1.62,1.62,0,0,1,520,50.19v7.22a1.62,1.62,0,0,1-1.83,1.84H471.43V90.69H514a1.62,1.62,0,0,1,1.84,1.84v7.1a1.62,1.62,0,0,1-1.84,1.83H471.43v28.63h46.74a1.62,1.62,0,0,1,1.83,1.83v7.22a1.62,1.62,0,0,1-1.83,1.84H460.91a1.62,1.62,0,0,1-1.84-1.84V50.19a1.62,1.62,0,0,1,1.84-1.84Z"/><path class="cls-2" d="M114,.09a5.54,5.54,0,0,0-6.46,4.45l-6.59,36.3h11.33l6.21-34.29A5.57,5.57,0,0,0,114,.09ZM26.63,4.54A5.6,5.6,0,0,0,20.13.09a5.54,5.54,0,0,0-4.45,6.46l6.17,34.29H33.22Zm107.31,150L111.15,58.67h12a5,5,0,1,0,0-10H79V59.26h8.77L72.63,70.89V25.31a5.56,5.56,0,0,0-11.12,0V70.89L46.32,59.26H55V48.64H10.94a5,5,0,0,0,0,10H23l-22.83,96a5.58,5.58,0,0,0,4.11,6.71,6.52,6.52,0,0,0,1.3.13,5.51,5.51,0,0,0,5.37-4.28l12.17-51.07,38.4,28.24V179a5.56,5.56,0,0,0,11.12,0V134.38L111,106.14l12.13,50.95a5.59,5.59,0,0,0,5.41,4.28,4.61,4.61,0,0,0,1.3-.17A5.54,5.54,0,0,0,133.94,154.52ZM61.51,120.57,36.62,102.23H55V91.11H26.68l6.63-27.78L61.51,84.9Zm36-18.34L72.63,120.57V84.9l28.2-21.57,6.59,27.78H79v11.12Z"/></svg>