<?xml version="1.0" encoding="utf-8"?>
<!-- Generator: Adobe Illustrator 21.1.0, SVG Export Plug-In . SVG Version: 6.00 Build 0)  -->
<svg version="1.1" id="Layer_1" xmlns="http://www.w3.org/2000/svg" xmlns:xlink="http://www.w3.org/1999/xlink" x="0px" y="0px"
	 viewBox="0 0 134.1 184.6" style="enable-background:new 0 0 134.1 184.6;" xml:space="preserve">
<style type="text/css">
	.st0{fill:url(#SVGID_1_);}
</style>
<title>FA Logo Spire</title>
<linearGradient id="SVGID_1_" gradientUnits="userSpaceOnUse" x1="18.2548" y1="34.2917" x2="120.5248" y2="162.7217" gradientTransform="matrix(1 0 0 -1 0 186.0078)">
	<stop  offset="0" style="stop-color:#00B0D2"/>
	<stop  offset="1" style="stop-color:#9ACA3C"/>
</linearGradient>
<path class="st0" d="M114,0.1c-3-0.6-5.9,1.4-6.5,4.4c0,0,0,0,0,0l-6.6,36.3h11.3l6.2-34.3C119,3.5,117,0.6,114,0.1z M26.6,4.5
	c-0.6-3-3.5-5-6.5-4.4c-3,0.6-5,3.4-4.5,6.4c0,0,0,0,0,0l6.2,34.3h11.4L26.6,4.5z M133.9,154.5l-22.8-95.9h12c2.8,0,5-2.2,5-5
	s-2.2-5-5-5H79v10.6h8.8L72.6,70.9V25.3c0-3.1-2.5-5.6-5.6-5.6c-3.1,0-5.6,2.5-5.6,5.6v45.6L46.3,59.3H55V48.6H10.9
	c-2.8,0-5,2.2-5,5s2.2,5,5,5H23l-22.8,96c-0.7,3,1.1,6,4.1,6.7c0.4,0.1,0.9,0.1,1.3,0.1c2.6,0,4.8-1.8,5.4-4.3l12.2-51.1l38.4,28.2
	V179c0,3.1,2.5,5.6,5.6,5.6c3.1,0,5.6-2.5,5.6-5.6v-44.6l38.4-28.2l12.1,50.9c0.6,2.5,2.8,4.3,5.4,4.3c0.4,0,0.9-0.1,1.3-0.2
	C132.8,160.5,134.6,157.5,133.9,154.5C133.9,154.5,133.9,154.5,133.9,154.5L133.9,154.5z M61.5,120.6l-24.9-18.3H55V91.1H26.7
	l6.6-27.8l28.2,21.6V120.6z M97.5,102.2l-24.9,18.3V84.9l28.2-21.6l6.6,27.8H79v11.1L97.5,102.2z"/>
</svg>
